<?xml version="1.0" encoding="UTF-8" standalone="no"?> <svg width="512" height="512" viewBox="0 0 512 512" fill="none" xmlns="http://www.w3.org/2000/svg">
<g clip-path="url(#clip0_453_1398)">
<path d="M485.191 246.344C486.699 250.566 488.904 254.577 489.763 259.144L500.963 318.688C503.517 332.332 492.7 344.888 478.37 344.888H33.6469C17.7119 344.888 6.62695 329.566 12.0689 315.066L35.81 251.911C42.41 234.344 59.6519 222.655 78.9549 222.655H131.791C133.837 222.658 135.845 222.098 137.593 221.036C139.342 219.974 140.765 218.45 141.705 216.633L171.836 158.333C175.777 150.873 181.689 144.637 188.929 140.305C196.169 135.973 204.459 133.712 212.896 133.766H336.308C355.444 133.766 372.572 145.255 379.297 162.599L396.597 207.221L401.623 222.654H448.73C457.821 222.656 480.619 233.544 485.191 246.344Z" fill="#2ECC71"/>
<path opacity="0.25" d="M497.065 297.976C493.052 300.758 488.281 302.24 483.398 302.222H28.615C24.877 302.233 21.1883 301.37 17.8439 299.7L12.0689 315.063C6.62695 329.563 17.7119 344.885 33.6469 344.885H478.367C492.697 344.885 503.514 332.329 500.96 318.685L497.065 297.976Z" fill="#105E30"/>
<path d="M401.618 222.656L396.592 207.223L379.3 162.6C372.576 145.256 355.447 133.767 336.311 133.767H212.9C204.463 133.713 196.173 135.974 188.933 140.306C181.693 144.638 175.781 150.874 171.84 158.334L141.709 216.634C140.769 218.451 139.346 219.975 137.597 221.037C135.849 222.099 133.841 222.659 131.795 222.656H401.618Z" fill="#ECF0F1"/>
<path opacity="0.25" d="M213.333 133.767H212.9C204.463 133.713 196.173 135.974 188.933 140.306C181.693 144.638 175.781 150.874 171.84 158.334L141.709 216.634C140.769 218.451 139.346 219.975 137.598 221.037C135.849 222.099 133.841 222.66 131.795 222.656H213.338L213.333 133.767Z" fill="#707070"/>
<path opacity="0.25" d="M320 133.767H277.333V222.667H320V133.767Z" fill="#707070"/>
<path d="M133.341 389.333C157.976 389.333 177.947 369.435 177.947 344.889C177.947 320.343 157.976 300.445 133.341 300.445C108.706 300.445 88.7351 320.343 88.7351 344.889C88.7351 369.435 108.706 389.333 133.341 389.333Z" fill="#34495E"/>
<path d="M133.341 355.517C139.232 355.517 144.008 350.759 144.008 344.889C144.008 339.019 139.232 334.261 133.341 334.261C127.45 334.261 122.674 339.019 122.674 344.889C122.674 350.759 127.45 355.517 133.341 355.517Z" fill="#547087"/>
<path d="M378.684 389.333C403.319 389.333 423.29 369.435 423.29 344.889C423.29 320.343 403.319 300.445 378.684 300.445C354.049 300.445 334.078 320.343 334.078 344.889C334.078 369.435 354.049 389.333 378.684 389.333Z" fill="#34495E"/>
<path d="M378.684 355.517C384.575 355.517 389.351 350.759 389.351 344.889C389.351 339.019 384.575 334.261 378.684 334.261C372.793 334.261 368.017 339.019 368.017 344.889C368.017 350.759 372.793 355.517 378.684 355.517Z" fill="#547087"/>
<path d="M501.327 224.522L485.191 246.344L421.516 332.467L412.328 344.889L395.902 367.111L398.778 344.889L403.551 307.989L409.082 265.256H356.358L385.887 222.656L396.593 207.222L455.205 122.667L448.726 222.833L448.614 224.522H501.327Z" fill="#F1C40F"/>
<path opacity="0.25" d="M426.273 326.033L429.712 299.448L434.652 261.282C434.969 258.829 434.76 256.337 434.038 253.972C433.316 251.607 432.098 249.422 430.466 247.565C428.833 245.707 426.823 244.219 424.57 243.199C422.317 242.179 419.873 241.652 417.4 241.651H372.72L356.358 265.251H409.082L403.551 307.984L398.778 344.884L395.9 367.111L412.326 344.889L421.515 332.467L426.273 326.033Z" fill="#D11313"/>
<path d="M511.456 316.718L500.256 257.175C499.641 253.913 498.726 250.715 497.524 247.621L509.913 230.864C511.087 229.276 511.797 227.394 511.964 225.426C512.131 223.458 511.749 221.483 510.86 219.72C509.971 217.957 508.61 216.475 506.928 215.44C505.247 214.404 503.311 213.856 501.336 213.856H460.006L465.86 123.356C466.01 121.029 465.394 118.717 464.105 116.774C462.817 114.831 460.927 113.363 458.726 112.596C456.524 111.829 454.131 111.804 451.914 112.525C449.697 113.247 447.777 114.675 446.449 116.591L399.286 184.626L389.26 158.744C380.995 137.424 359.722 123.1 336.327 123.1H212.918C202.518 123.014 192.296 125.8 183.379 131.153C174.463 136.506 167.197 144.217 162.383 153.436L132.246 211.748C132.203 211.824 132.14 211.887 132.064 211.929C131.988 211.972 131.902 211.992 131.815 211.989H78.982C55.335 211.989 33.982 226.524 25.854 248.157L2.11099 311.319C0.242707 316.21 -0.394706 321.486 0.254845 326.681C0.904396 331.877 2.821 336.833 5.83599 341.114C8.96448 345.591 13.1312 349.243 17.9794 351.759C22.8277 354.274 28.2132 355.577 33.675 355.556H79.144C81.6547 368.088 88.4287 379.363 98.314 387.464C108.199 395.566 120.586 399.993 133.366 399.993C146.147 399.993 158.534 395.566 168.419 387.464C178.304 379.363 185.078 368.088 187.589 355.556H324.479C326.99 368.088 333.764 379.363 343.649 387.464C353.534 395.566 365.921 399.993 378.702 399.993C391.482 399.993 403.869 395.566 413.754 387.464C423.639 379.363 430.413 368.088 432.924 355.556H478.381C483.359 355.578 488.281 354.5 492.794 352.399C497.307 350.297 501.3 347.225 504.487 343.4C507.543 339.741 509.753 335.452 510.957 330.839C512.162 326.226 512.332 321.404 511.456 316.718ZM440.844 231.813C441.842 232.879 443.047 233.728 444.387 234.309C445.726 234.89 447.17 235.19 448.63 235.19H480.188L411.77 327.729L419.676 266.629C419.871 265.125 419.743 263.597 419.301 262.146C418.859 260.695 418.113 259.356 417.112 258.216C416.111 257.077 414.879 256.164 413.497 255.539C412.116 254.913 410.617 254.589 409.1 254.589H376.75L442.1 160.324L438.1 222.131L437.989 223.82C437.893 225.277 438.096 226.738 438.588 228.113C439.079 229.487 439.847 230.747 440.844 231.813V231.813ZM369.369 166.456L384.617 205.795L380.323 211.99H288.99V144.433H336.327C350.984 144.433 364.263 153.283 369.369 166.455V166.456ZM181.334 163.233C184.358 157.496 188.907 152.704 194.48 149.387C200.052 146.07 206.433 144.356 212.918 144.433H267.657V211.989H156.136L181.334 163.233ZM133.366 378.667C126.692 378.636 120.177 376.629 114.643 372.899C109.108 369.168 104.803 363.882 102.271 357.708C99.738 351.533 99.0913 344.746 100.412 338.204C101.733 331.662 104.962 325.658 109.692 320.95C114.423 316.241 120.441 313.04 126.989 311.749C133.537 310.458 140.321 311.136 146.484 313.697C152.647 316.258 157.913 320.588 161.618 326.139C165.323 331.691 167.3 338.215 167.3 344.889C167.268 353.865 163.677 362.461 157.316 368.793C150.955 375.125 142.342 378.676 133.366 378.667V378.667ZM324.48 334.222H187.589C185.078 321.69 178.304 310.415 168.419 302.314C158.534 294.212 146.147 289.785 133.366 289.785C120.586 289.785 108.199 294.212 98.314 302.314C88.4287 310.415 81.6547 321.69 79.144 334.222H33.675C31.6589 334.256 29.6654 333.795 27.8695 332.878C26.0735 331.961 24.5302 330.618 23.375 328.965C22.3374 327.513 21.6764 325.826 21.4512 324.055C21.2261 322.285 21.4438 320.486 22.085 318.82L45.826 255.664C50.849 242.301 64.174 233.323 78.985 233.323H365.534L347.61 259.178C346.501 260.778 345.851 262.652 345.73 264.595C345.61 266.538 346.023 268.477 346.926 270.202C347.83 271.927 349.188 273.372 350.853 274.381C352.519 275.389 354.429 275.922 356.376 275.922H396.962L394.862 292.171C387.475 289.926 379.7 289.25 372.036 290.188C364.373 291.125 356.99 293.655 350.362 297.615C343.734 301.575 338.008 306.878 333.551 313.182C329.093 319.486 326.004 326.653 324.481 334.222H324.48ZM344.764 344.889C344.791 339.288 346.204 333.781 348.876 328.858C351.549 323.936 355.398 319.751 360.08 316.678C364.763 313.605 370.133 311.738 375.713 311.244C381.292 310.751 386.907 311.645 392.056 313.849L385.342 365.742C385.068 367.866 385.44 370.024 386.411 371.934C387.381 373.843 388.904 375.417 390.781 376.448C385.655 378.398 380.133 379.078 374.687 378.428C369.241 377.778 364.033 375.818 359.51 372.716C354.987 369.614 351.283 365.462 348.715 360.616C346.147 355.77 344.791 350.374 344.764 344.889V344.889ZM488.073 329.771C486.885 331.181 485.401 332.311 483.725 333.081C482.05 333.85 480.225 334.24 478.382 334.222H433.5L480.968 270.022L490.488 320.654C490.792 322.258 490.733 323.909 490.315 325.487C489.897 327.064 489.131 328.528 488.073 329.771V329.771Z" fill="black"/>
<path d="M244.871 256.445H222.571C219.76 256.472 217.073 257.608 215.095 259.605C213.117 261.603 212.007 264.3 212.007 267.112C212.007 269.923 213.117 272.62 215.095 274.618C217.073 276.615 219.76 277.751 222.571 277.778H244.871C247.682 277.751 250.369 276.615 252.347 274.618C254.325 272.62 255.435 269.923 255.435 267.112C255.435 264.3 254.325 261.603 252.347 259.605C250.369 257.608 247.682 256.472 244.871 256.445V256.445Z" fill="black"/>
</g>
<defs>
<clipPath id="clip0_453_1398">
<rect width="512" height="512" fill="white"/>
</clipPath>
</defs>
</svg>
